# This file uses centimeters as units for non-parametric coordinates.

mtllib lamp.mtl
g default
v 0.201182 11.518635 0.459411
v 1.088064 11.518635 0.459411
v 0.341820 11.914707 0.408962
v 1.020397 11.914707 0.408962
v 0.341820 11.914707 -0.408962
v 1.020397 11.914707 -0.408962
v 0.201182 11.518635 -0.459411
v 1.088064 11.518635 -0.459411
v 0.223401 11.712866 0.442846
v 0.223401 11.712866 -0.442846
v 1.065846 11.712866 -0.442846
v 1.065846 11.712866 0.442846
v 1.303927 11.914707 0.015997
v 0.145302 11.914707 0.021506
v 0.026883 11.712866 0.023288
v 0.004665 11.518635 0.024159
v 1.371594 11.518635 0.021004
v 1.303927 11.914707 0.277734
v 0.145302 11.914707 0.160184
v 0.026883 11.712866 0.173456
v 0.004665 11.518635 0.179945
v 1.371594 11.518635 0.315029
v 1.349376 11.712866 0.302783
v 1.303927 11.914707 -0.233795
v 0.145302 11.914707 -0.110844
v 0.026883 11.712866 -0.120027
v 0.004665 11.518635 -0.124517
v 1.371594 11.518635 -0.259601
v 1.349376 11.712866 -0.251128
v 1.535876 11.553006 0.024629
v 1.533488 11.602441 -0.118145
v 1.527864 11.720453 -0.176606
v 1.520050 11.886002 0.026946
v 1.522297 11.837906 -0.116507
v 1.533628 11.601092 0.168082
v 1.528062 11.718551 0.228181
v 1.522438 11.836566 0.169720
v 1.662563 11.590741 0.022766
v 1.661039 11.629064 -0.068349
v 1.657450 11.720544 -0.105656
v 1.652464 11.848868 0.024245
v 1.653898 11.811586 -0.067303
v 1.661129 11.628022 0.114314
v 1.657576 11.719068 0.152667
v 1.653987 11.810545 0.115360
v 2.642911 11.862919 0.022766
v 2.632829 11.899923 -0.068349
v 2.608810 11.988267 -0.105656
v 2.575162 12.112201 0.024245
v 2.584924 12.076193 -0.067303
v 2.633150 11.898928 0.114314
v 2.609263 11.986856 0.152667
v 2.585245 12.075196 0.115360
v 3.620021 11.899006 0.022766
v 3.624201 11.937130 -0.068349
v 3.634226 12.028130 -0.105656
v 3.648337 12.155774 0.024245
v 3.644223 12.118691 -0.067303
v 3.624135 11.936087 0.114314
v 3.634132 12.026651 0.152667
v 3.644157 12.117648 0.115360
v 4.323093 11.427026 0.022766
v 4.357729 11.443498 -0.068349
v 4.440427 11.482771 -0.105656
v 4.556452 11.537819 0.024245
v 4.522738 11.521839 -0.067303
v 4.356806 11.443007 0.114314
v 4.439119 11.482075 0.152667
v 4.521815 11.521347 0.115360
v 4.692071 -0.005049 0.022766
v 4.820227 -0.000034 0.022690
v 4.730393 -0.003525 -0.068349
v 4.821873 0.000065 -0.105656
v 4.950197 0.005051 0.024245
v 4.912916 0.003616 -0.067303
v 4.729352 -0.003614 0.114314
v 4.820397 -0.000061 0.152667
v 4.911874 0.003527 0.115360
v 4.820397 10.359035 0.152667
v 4.911874 10.362624 0.115360
v 4.950197 10.364148 0.024245
v 4.912916 10.362713 -0.067303
v 4.821873 10.359161 -0.105656
v 4.730393 10.355572 -0.068349
v 4.692071 10.354048 0.022766
v 4.729352 10.355482 0.114314
vt 0.375000 0.000000
vt 0.625000 0.000000
vt 0.375000 0.250000
vt 0.625000 0.250000
vt 0.375000 0.500000
vt 0.625000 0.500000
vt 0.375000 0.750000
vt 0.625000 0.750000
vt 0.375000 1.000000
vt 0.625000 1.000000
vt 0.875000 0.000000
vt 0.875000 0.250000
vt 0.125000 0.000000
vt 0.125000 0.250000
vt 0.375000 0.122599
vt 0.125000 0.122599
vt 0.375000 0.627401
vt 0.625000 0.627401
vt 0.875000 0.122599
vt 0.625000 0.122599
vt 0.625000 0.368427
vt 0.743427 0.250000
vt 0.256573 0.250000
vt 0.375000 0.368427
vt 0.256573 0.122599
vt 0.256573 0.000000
vt 0.375000 0.881573
vt 0.625000 0.881573
vt 0.743427 0.000000
vt 0.743427 0.122599
vt 0.625000 0.326039
vt 0.701039 0.250000
vt 0.298961 0.250000
vt 0.375000 0.326039
vt 0.298961 0.122599
vt 0.298961 0.000000
vt 0.375000 0.923961
vt 0.625000 0.923961
vt 0.701039 0.000000
vt 0.701039 0.122599
vt 0.625000 0.408880
vt 0.783880 0.250000
vt 0.216120 0.250000
vt 0.375000 0.408880
vt 0.216120 0.122599
vt 0.216120 0.000000
vt 0.375000 0.841120
vt 0.625000 0.841120
vt 0.783880 0.000000
vt 0.783880 0.122599
vt 0.743427 0.000000
vt 0.783880 0.000000
vt 0.783880 0.122599
vt 0.783880 0.250000
vt 0.743427 0.250000
vt 0.701039 0.122599
vt 0.701039 0.000000
vt 0.701039 0.250000
vt 0.743427 0.000000
vt 0.783880 0.000000
vt 0.783880 0.122599
vt 0.783880 0.250000
vt 0.743427 0.250000
vt 0.701039 0.122599
vt 0.701039 0.000000
vt 0.701039 0.250000
vt 0.743427 0.000000
vt 0.783880 0.000000
vt 0.783880 0.122599
vt 0.783880 0.250000
vt 0.743427 0.250000
vt 0.701039 0.122599
vt 0.701039 0.000000
vt 0.701039 0.250000
vt 0.743427 0.000000
vt 0.783880 0.000000
vt 0.783880 0.122599
vt 0.783880 0.250000
vt 0.743427 0.250000
vt 0.701039 0.122599
vt 0.701039 0.000000
vt 0.701039 0.250000
vt 0.743427 0.000000
vt 0.783880 0.000000
vt 0.783880 0.122599
vt 0.783880 0.250000
vt 0.743427 0.250000
vt 0.701039 0.122599
vt 0.701039 0.000000
vt 0.701039 0.250000
vt 0.743427 0.000000
vt 0.783880 0.000000
vt 0.783880 0.122599
vt 0.783880 0.250000
vt 0.743427 0.250000
vt 0.701039 0.122599
vt 0.701039 0.000000
vt 0.701039 0.250000
vt 0.701039 0.122599
vt 0.701039 0.250000
vt 0.743427 0.250000
vt 0.783880 0.250000
vt 0.783880 0.122599
vt 0.783880 0.000000
vt 0.743427 0.000000
vt 0.701039 0.000000
vn 0.000000 0.084974 0.996383
vn 0.000000 0.084974 0.996383
vn 0.000000 0.119380 0.992849
vn 0.000000 0.114438 0.993430
vn 0.000000 1.000000 -0.000007
vn 0.000000 1.000000 -0.000007
vn 0.028053 0.999530 0.012402
vn 0.000000 1.000000 -0.000002
vn 0.000000 0.114438 -0.993430
vn 0.000000 0.119381 -0.992849
vn 0.000000 0.084974 -0.996383
vn 0.000000 0.084974 -0.996383
vn 0.000000 -1.000000 -0.000001
vn 0.020767 -0.999768 0.005712
vn 0.000000 -1.000000 -0.000003
vn 0.000000 -1.000000 -0.000003
vn 0.445301 0.116776 0.887733
vn 0.445301 0.116776 0.887733
vn 0.434220 0.167709 0.885058
vn 0.432627 0.174579 0.884509
vn -0.901312 0.127667 0.413930
vn -0.806500 0.126530 0.577536
vn -0.760765 0.325284 0.561629
vn -0.860685 0.318782 0.396989
vn -0.701628 0.473809 0.532188
vn -0.772492 0.499083 0.392648
vn 0.000000 0.165561 -0.986200
vn 0.000000 0.165561 -0.986200
vn 0.420691 0.223105 0.879342
vn 0.420691 0.223105 0.879342
vn 0.000000 0.165560 0.986200
vn 0.000000 0.165560 0.986200
vn 0.000000 1.000000 0.000000
vn 0.044240 0.999021 -0.000355
vn 0.025405 0.999617 -0.011012
vn 0.000000 1.000000 0.000002
vn -0.874627 0.319076 -0.364991
vn -0.944356 0.328927 0.000000
vn -0.862515 0.506032 0.000000
vn -0.788129 0.500598 -0.358127
vn -0.917097 0.125418 -0.378421
vn -0.993521 0.113651 0.000000
vn 0.000000 -1.000000 0.000001
vn 0.019152 -0.999801 -0.005492
vn 0.042891 -0.999080 -0.000334
vn 0.000000 -1.000000 0.000000
vn 0.039097 -0.999235 -0.000265
vn 0.039100 -0.999235 -0.000265
vn 0.039098 -0.999235 -0.000270
vn 0.039097 -0.999235 -0.000269
vn 0.039093 -0.999236 -0.000265
vn 0.039095 -0.999235 -0.000268
vn 0.039097 -0.999235 -0.000262
vn 0.039102 -0.999235 -0.000261
vn 0.039092 -0.999236 -0.000262
vn 0.000000 1.000000 0.000005
vn 0.000000 1.000000 0.000005
vn -0.804408 0.327979 -0.495336
vn -0.739493 0.483794 -0.468075
vn -0.851675 0.125009 -0.508942
vn 0.000000 -1.000000 0.000002
vn 0.000000 -1.000000 0.000002
vn 0.548580 0.167859 -0.819075
vn 0.564262 0.117220 -0.817232
vn 0.564262 0.117220 -0.817232
vn 0.546679 0.173648 -0.819139
vn 0.529526 0.223076 -0.818437
vn 0.529526 0.223076 -0.818437
vn 0.381232 -0.917991 -0.109337
vn 0.380254 -0.924882 -0.000177
vn 0.549855 -0.084009 -0.831024
vn 0.507114 0.118826 -0.853648
vn 0.509893 0.108358 -0.853386
vn 0.549855 -0.084009 -0.831024
vn 0.456877 0.277921 -0.844999
vn 0.456877 0.277921 -0.844999
vn 0.265587 0.964074 0.005057
vn 0.266453 0.956901 -0.115512
vn 0.503578 0.129392 0.854205
vn 0.557470 -0.077215 0.826599
vn 0.557470 -0.077215 0.826599
vn 0.507400 0.117387 0.853677
vn 0.375135 -0.921209 0.103188
vn 0.442981 0.292037 0.847633
vn 0.442981 0.292037 0.847633
vn 0.261388 0.958291 0.115567
vn 0.290550 -0.894264 -0.340401
vn 0.290550 -0.894264 -0.340401
vn 0.290550 -0.894264 -0.340401
vn 0.290550 -0.894264 -0.340401
vn 0.426899 -0.360373 -0.829390
vn 0.426899 -0.360373 -0.829390
vn 0.426899 -0.360373 -0.829390
vn 0.426899 -0.360373 -0.829390
vn 0.415561 0.403177 -0.815326
vn 0.415561 0.403177 -0.815326
vn 0.415561 0.403177 -0.815326
vn 0.415561 0.403177 -0.815326
vn 0.274695 0.905109 -0.324532
vn 0.274695 0.905109 -0.324532
vn 0.274695 0.905109 -0.324532
vn 0.274694 0.905109 -0.324532
vn 0.449144 -0.365351 0.815345
vn 0.449144 -0.365351 0.815345
vn 0.449144 -0.365351 0.815345
vn 0.449144 -0.365351 0.815345
vn 0.299909 -0.895120 0.329870
vn 0.299909 -0.895120 0.329870
vn 0.299909 -0.895120 0.329870
vn 0.299909 -0.895120 0.329870
vn 0.440491 0.389207 0.809003
vn 0.440491 0.389207 0.809003
vn 0.440491 0.389207 0.809003
vn 0.440491 0.389207 0.809003
vn 0.286810 0.898493 0.332341
vn 0.286810 0.898493 0.332342
vn 0.286810 0.898493 0.332341
vn 0.286810 0.898493 0.332341
vn 0.247504 -0.889738 -0.383548
vn 0.247504 -0.889738 -0.383548
vn 0.247504 -0.889738 -0.383548
vn 0.247504 -0.889738 -0.383548
vn 0.102972 -0.367688 -0.924231
vn 0.102972 -0.367688 -0.924231
vn 0.102972 -0.367688 -0.924231
vn 0.102972 -0.367688 -0.924231
vn -0.106843 0.377811 -0.919697
vn -0.106843 0.377811 -0.919697
vn -0.106843 0.377811 -0.919697
vn -0.106843 0.377812 -0.919697
vn -0.254165 0.892438 -0.372767
vn -0.254165 0.892438 -0.372767
vn -0.254165 0.892438 -0.372767
vn -0.254165 0.892438 -0.372767
vn 0.105843 -0.377972 0.919747
vn 0.105843 -0.377972 0.919747
vn 0.105843 -0.377972 0.919747
vn 0.105843 -0.377972 0.919747
vn 0.248649 -0.893887 0.373013
vn 0.248649 -0.893887 0.373013
vn 0.248649 -0.893887 0.373013
vn 0.248649 -0.893887 0.373013
vn -0.103927 0.367532 0.924186
vn -0.103927 0.367532 0.924186
vn -0.103927 0.367532 0.924186
vn -0.103927 0.367532 0.924186
vn -0.252977 0.888301 0.383307
vn -0.252977 0.888301 0.383307
vn -0.252977 0.888301 0.383308
vn -0.252977 0.888301 0.383308
vn 0.034388 -0.923571 -0.381882
vn 0.034388 -0.923571 -0.381882
vn 0.034388 -0.923571 -0.381882
vn 0.034388 -0.923571 -0.381882
vn 0.014640 -0.383116 -0.923584
vn 0.014640 -0.383116 -0.923584
vn 0.014640 -0.383116 -0.923584
vn 0.014640 -0.383116 -0.923584
vn -0.015557 0.393768 -0.919078
vn -0.015557 0.393768 -0.919078
vn -0.015557 0.393768 -0.919078
vn -0.015557 0.393768 -0.919078
vn -0.037444 0.927686 -0.371479
vn -0.037444 0.927686 -0.371479
vn -0.037444 0.927686 -0.371479
vn -0.037444 0.927686 -0.371479
vn 0.015033 -0.393803 0.919072
vn 0.015033 -0.393803 0.919072
vn 0.015033 -0.393803 0.919072
vn 0.015033 -0.393803 0.919072
vn 0.034530 -0.927812 0.371445
vn 0.034530 -0.927813 0.371445
vn 0.034530 -0.927813 0.371445
vn 0.034530 -0.927813 0.371445
vn -0.015121 0.383090 0.923587
vn -0.015121 0.383090 0.923587
vn -0.015121 0.383090 0.923587
vn -0.015121 0.383090 0.923587
vn -0.037259 0.923440 0.381931
vn -0.037259 0.923440 0.381931
vn -0.037259 0.923440 0.381931
vn -0.037259 0.923440 0.381931
vn -0.523615 -0.779014 -0.344913
vn -0.523615 -0.779014 -0.344913
vn -0.523615 -0.779014 -0.344913
vn -0.523615 -0.779014 -0.344913
vn -0.236586 -0.350608 -0.906147
vn -0.236586 -0.350608 -0.906147
vn -0.236586 -0.350608 -0.906147
vn -0.236586 -0.350608 -0.906147
vn 0.243715 0.359471 -0.900768
vn 0.243715 0.359470 -0.900769
vn 0.243715 0.359471 -0.900768
vn 0.243715 0.359471 -0.900769
vn 0.529743 0.779098 -0.335229
vn 0.529743 0.779098 -0.335229
vn 0.529743 0.779098 -0.335229
vn 0.529743 0.779098 -0.335229
vn -0.242941 -0.360004 0.900765
vn -0.242941 -0.360004 0.900765
vn -0.242941 -0.360004 0.900765
vn -0.242941 -0.360004 0.900765
vn -0.525586 -0.781928 0.335183
vn -0.525586 -0.781928 0.335183
vn -0.525586 -0.781928 0.335183
vn -0.525586 -0.781928 0.335183
vn 0.237361 0.350076 0.906149
vn 0.237361 0.350076 0.906149
vn 0.237361 0.350076 0.906149
vn 0.237361 0.350077 0.906149
vn 0.527774 0.776182 0.344959
vn 0.527774 0.776182 0.344959
vn 0.527774 0.776182 0.344959
vn 0.527774 0.776182 0.344959
vn -0.874915 -0.300279 -0.379941
vn -0.874915 -0.300279 -0.379941
vn -0.921018 -0.028180 -0.388498
vn -0.920880 -0.031483 -0.388572
vn -0.364704 -0.124360 -0.922781
vn -0.364704 -0.124360 -0.922781
vn -0.376751 -0.010689 -0.926253
vn -0.376472 -0.013977 -0.926323
vn 0.375140 0.126807 -0.918254
vn 0.375140 0.126807 -0.918254
vn 0.387321 0.011238 -0.921876
vn 0.387038 0.014629 -0.921948
vn 0.880765 0.295976 -0.369664
vn 0.880765 0.295976 -0.369664
vn 0.925352 0.029790 -0.377937
vn 0.925212 0.033101 -0.378003
vn -0.374863 -0.127832 0.918225
vn -0.374863 -0.127832 0.918225
vn -0.387037 -0.014360 0.921952
vn -0.387321 -0.010991 0.921879
vn -0.878910 -0.301658 0.369486
vn -0.878910 -0.301658 0.369486
vn -0.925264 -0.031601 0.378005
vn -0.925398 -0.028340 0.377935
vn 0.364970 0.123376 0.922808
vn 0.364970 0.123376 0.922808
vn 0.376475 0.014230 0.926317
vn 0.376753 0.010922 0.926249
vn 0.876753 0.294634 0.380125
vn 0.876753 0.294634 0.380125
vn 0.920827 0.032967 0.388576
vn 0.920970 0.029614 0.388507
vn 0.377640 0.000000 0.925953
vn 0.377640 0.000000 0.925953
vn 0.921783 0.000000 0.387707
vn 0.921783 0.000000 0.387707
vn 0.926150 0.000000 -0.377156
vn 0.926150 0.000000 -0.377156
vn 0.388226 -0.000000 -0.921564
vn 0.388226 -0.000000 -0.921564
vn -0.377629 0.000000 -0.925957
vn -0.377630 0.000000 -0.925957
vn -0.921786 0.000000 -0.387699
vn -0.921786 0.000000 -0.387699
vn -0.926151 0.000000 0.377154
vn -0.926151 0.000000 0.377154
vn -0.388217 0.000000 0.921568
vn -0.388217 0.000000 0.921568
s 1
g lamp
usemtl initialShadingGroup
f 1/1/1 2/2/2 12/20/3 9/15/4
s 2
f 3/3/5 4/4/6 18/31/7 19/34/8
s 3
f 10/17/9 11/18/10 8/8/11 7/7/12
s 4
f 21/37/13 22/38/14 2/10/15 1/9/16
s 5
f 2/2/17 22/39/18 23/40/19 12/20/20
s 6
f 21/36/21 1/1/22 9/15/23 20/35/24
f 20/35/24 9/15/23 3/3/25 19/33/26
s 3
f 5/5/27 6/6/28 11/18/10 10/17/9
s 5
f 12/20/20 23/40/19 18/32/29 4/4/30
s 1
f 9/15/4 12/20/3 4/4/31 3/3/32
s 2
f 14/24/33 13/21/34 24/41/35 25/44/36
s 6
f 26/45/37 15/25/38 14/23/39 25/43/40
f 27/46/41 16/26/42 15/25/38 26/45/37
s 4
f 27/47/43 28/48/44 17/28/45 16/27/46
s 9
f 71/30/47 70/91/48 72/92/49 73/93/50
f 74/95/51 71/30/47 73/93/50 75/94/52
s 2
f 19/34/8 18/31/7 13/21/34 14/24/33
s 6
f 15/25/38 20/35/24 19/33/26 14/23/39
f 16/26/42 21/36/21 20/35/24 15/25/38
s 4
f 16/27/46 17/28/45 22/38/14 21/37/13
s 9
f 77/96/53 76/97/54 70/91/48 71/30/47
f 78/98/55 77/96/53 71/30/47 74/95/51
s 2
f 25/44/36 24/41/35 6/6/56 5/5/57
s 6
f 10/16/58 26/45/37 25/43/40 5/14/59
f 7/13/60 27/46/41 26/45/37 10/16/58
s 4
f 7/7/61 8/8/62 28/48/44 27/47/43
s 10
f 29/50/63 28/49/64 8/11/65 11/19/66
f 24/42/67 29/50/63 11/19/66 6/12/68
s 4
f 17/29/45 28/49/44 31/52/69 30/51/70
s 11
f 28/49/71 29/50/72 32/53/73 31/52/74
f 29/50/72 24/42/75 34/54/76 32/53/73
s 2
f 24/42/35 13/22/34 33/55/77 34/54/78
s 12
f 23/40/79 22/39/80 35/57/81 36/56/82
s 4
f 22/39/14 17/29/45 30/51/70 35/57/83
s 12
f 18/32/84 23/40/79 36/56/82 37/58/85
s 2
f 13/22/34 18/32/7 37/58/86 33/55/77
s off
f 30/51/87 31/52/88 39/60/89 38/59/90
f 31/52/91 32/53/92 40/61/93 39/60/94
f 32/53/95 34/54/96 42/62/97 40/61/98
f 34/54/99 33/55/100 41/63/101 42/62/102
f 36/56/103 35/57/104 43/65/105 44/64/106
f 35/57/107 30/51/108 38/59/109 43/65/110
f 37/58/111 36/56/112 44/64/113 45/66/114
f 33/55/115 37/58/116 45/66/117 41/63/118
f 38/59/119 39/60/120 47/68/121 46/67/122
f 39/60/123 40/61/124 48/69/125 47/68/126
f 40/61/127 42/62/128 50/70/129 48/69/130
f 42/62/131 41/63/132 49/71/133 50/70/134
f 44/64/135 43/65/136 51/73/137 52/72/138
f 43/65/139 38/59/140 46/67/141 51/73/142
f 45/66/143 44/64/144 52/72/145 53/74/146
f 41/63/147 45/66/148 53/74/149 49/71/150
f 46/67/151 47/68/152 55/76/153 54/75/154
f 47/68/155 48/69/156 56/77/157 55/76/158
f 48/69/159 50/70/160 58/78/161 56/77/162
f 50/70/163 49/71/164 57/79/165 58/78/166
f 52/72/167 51/73/168 59/81/169 60/80/170
f 51/73/171 46/67/172 54/75/173 59/81/174
f 53/74/175 52/72/176 60/80/177 61/82/178
f 49/71/179 53/74/180 61/82/181 57/79/182
f 54/75/183 55/76/184 63/84/185 62/83/186
f 55/76/187 56/77/188 64/85/189 63/84/190
f 56/77/191 58/78/192 66/86/193 64/85/194
f 58/78/195 57/79/196 65/87/197 66/86/198
f 60/80/199 59/81/200 67/89/201 68/88/202
f 59/81/203 54/75/204 62/83/205 67/89/206
f 61/82/207 60/80/208 68/88/209 69/90/210
f 57/79/211 61/82/212 69/90/213 65/87/214
s 13
f 62/83/215 63/84/216 84/104/217 85/105/218
s 14
f 63/84/219 64/85/220 83/103/221 84/104/222
s 15
f 64/85/223 66/86/224 82/102/225 83/103/226
s 16
f 66/86/227 65/87/228 81/101/229 82/102/230
s 17
f 68/88/231 67/89/232 86/106/233 79/99/234
s 18
f 67/89/235 62/83/236 85/105/237 86/106/238
s 19
f 69/90/239 68/88/240 79/99/241 80/100/242
s 20
f 65/87/243 69/90/244 80/100/245 81/101/246
s 19
f 80/100/242 79/99/241 77/96/247 78/98/248
s 20
f 81/101/246 80/100/245 78/98/249 74/95/250
s 16
f 82/102/230 81/101/229 74/95/251 75/94/252
s 15
f 83/103/226 82/102/225 75/94/253 73/93/254
s 14
f 84/104/222 83/103/221 73/93/255 72/92/256
s 13
f 85/105/218 84/104/217 72/92/257 70/91/258
s 18
f 86/106/238 85/105/237 70/91/259 76/97/260
s 17
f 79/99/234 86/106/233 76/97/261 77/96/262
