# This file uses centimeters as units for non-parametric coordinates.

g default
v -11.304844 -0.000000 26.403521
v 11.304844 -0.000000 26.403521
v -11.304844 0.000000 -26.403521
v 11.304844 0.000000 -26.403521
v -11.304844 0.542142 26.403521
v -11.304844 0.542142 -26.403521
v 11.304844 0.542142 26.403521
v 11.304844 0.542142 -26.403521
v -14.545655 0.542142 26.403521
v -14.545655 0.542142 -26.403521
v 14.545655 0.542142 26.403521
v 14.545655 0.542142 -26.403521
vt 0.995668 0.117532
vt 0.994579 0.887085
vt 0.004332 0.882468
vt 0.005421 0.112915
vt 0.005421 0.112915
vt 0.995668 0.117532
vt 0.994579 0.887085
vt 0.004332 0.882468
vt 0.005577 0.007412
vt 0.995824 0.011985
vt 0.994423 0.992588
vt 0.004176 0.988015
vn 0.000000 1.000000 0.000000
vn 0.000000 1.000000 0.000000
vn 0.000000 1.000000 0.000000
vn 0.000000 1.000000 0.000000
vn 1.000000 0.000000 0.000000
vn 1.000000 0.000000 0.000000
vn 1.000000 0.000000 0.000000
vn 1.000000 0.000000 0.000000
vn -1.000000 0.000000 0.000000
vn -1.000000 0.000000 0.000000
vn -1.000000 0.000000 0.000000
vn -1.000000 0.000000 0.000000
vn 0.000000 1.000000 0.000000
vn 0.000000 1.000000 0.000000
vn 0.000000 1.000000 0.000000
vn 0.000000 1.000000 0.000000
vn 0.000000 1.000000 0.000000
vn 0.000000 1.000000 0.000000
vn 0.000000 1.000000 0.000000
vn 0.000000 1.000000 0.000000
g road_long_tris
f 1/1/1 2/2/2 3/4/3
f 3/4/3 2/2/2 4/3/4
f 1/1/5 3/4/6 5/6/7
f 5/6/7 3/4/6 6/5/8
f 4/3/9 2/2/10 8/8/11
f 8/8/11 2/2/10 7/7/12
f 5/6/13 6/5/14 9/10/15
f 9/10/15 6/5/14 10/9/16
f 8/8/17 7/7/18 12/12/19
f 12/12/19 7/7/18 11/11/20
